<svg xmlns="http://www.w3.org/2000/svg" xmlns:xlink="http://www.w3.org/1999/xlink" id="Gradient" viewBox="0 0 512 512" width="512" height="512"><defs><linearGradient id="linear-gradient" x1="256" y1="496" x2="256" y2="16" gradientUnits="userSpaceOnUse"><stop offset="0" stop-color="#12bee5"/><stop offset="0.5" stop-color="#c071e9"/><stop offset="1" stop-color="#f24f5a"/></linearGradient></defs><path d="M112,208a96.867,96.867,0,0,0,15.967-1.346,95.769,95.769,0,0,0,32,0,96,96,0,1,0,0-189.308,95.763,95.763,0,0,0-32,0A96,96,0,1,0,112,208ZM176,32a80,80,0,1,1-80,80A80.091,80.091,0,0,1,176,32Zm-59.875,5.019a95.878,95.878,0,0,0,0,149.962,79.992,79.992,0,0,1,0-149.962Zm-32,0a95.878,95.878,0,0,0,0,149.962,79.992,79.992,0,0,1,0-149.962ZM176,248v56H152a8,8,0,0,0-8,8V488a8,8,0,0,0,8,8H456a8,8,0,0,0,8-8V464h24a8,8,0,0,0,8-8V248a8,8,0,0,0-8-8H184A8,8,0,0,0,176,248ZM160,480V448.8A40.126,40.126,0,0,1,191.2,480Zm288,0H416.8A40.126,40.126,0,0,1,448,448.8Zm0-47.419A56.112,56.112,0,0,0,400.581,480H357a95.922,95.922,0,0,0,0-160h43.578A56.112,56.112,0,0,0,448,367.419ZM304,480a80,80,0,1,1,80-80A80.091,80.091,0,0,1,304,480Zm176-32H464V424a40.041,40.041,0,0,1,16-7.181Zm0-47.412a56.179,56.179,0,0,0-16,4.83V330.586a55.52,55.52,0,0,0,16,4.833ZM480,256v16H456a39.875,39.875,0,0,1-7.188-16Zm0,32v31.2a39.821,39.821,0,0,1-16-7.222A8,8,0,0,0,456.026,304a39.815,39.815,0,0,1-7.222-16Zm-32,63.2A40.126,40.126,0,0,1,416.8,320H448ZM432.578,256a55.85,55.85,0,0,0,4.831,16H407.543a96.239,96.239,0,0,0-18.454-16Zm0,32a55.52,55.52,0,0,0,4.833,16H407.543a96.239,96.239,0,0,0-18.454-16ZM336,256a79.74,79.74,0,0,1,48.008,16H287.991A79.739,79.739,0,0,1,336,256Zm0,32a79.74,79.74,0,0,1,48.008,16H287.991A79.739,79.739,0,0,1,336,288Zm-96.578-32H282.91a96.275,96.275,0,0,0-18.455,16H234.591A55.85,55.85,0,0,0,239.422,256Zm0,32H282.91a96.275,96.275,0,0,0-18.455,16H234.591A55.85,55.85,0,0,0,239.422,288ZM192,256h31.185A39.875,39.875,0,0,1,216,272H192Zm0,32h31.185A39.875,39.875,0,0,1,216,304H192Zm15.419,32H251a95.922,95.922,0,0,0,0,160H207.419A56.112,56.112,0,0,0,160,432.581V367.419A56.112,56.112,0,0,0,207.419,320ZM160,351.2V320H191.2A40.119,40.119,0,0,1,160,351.2ZM288,72a88.119,88.119,0,0,1,87.64,80H344a8,8,0,0,0-5.657,13.657l56,56a8,8,0,0,0,11.314,0l56-56A8,8,0,0,0,456,152H431.7A104.139,104.139,0,0,0,328,56H288a8,8,0,0,0,0,16Zm128,88a8,8,0,0,0,8,8h12.687L400,204.686,363.313,168H384a8,8,0,0,0,8-8,103.98,103.98,0,0,0-45.706-86.088A88.151,88.151,0,0,1,416,160ZM111.9,392h.1a8,8,0,0,0,.2-16C99.084,375.668,88,364.681,88,352.01v-56h16a8,8,0,0,0,6.51-12.65l-40-56a8,8,0,0,0-13.02,0l-40,56A8,8,0,0,0,24,296.01H40v24C40,359.206,72.254,391.5,111.9,392ZM39.546,280.01,64,245.773,88.454,280.01H80a8,8,0,0,0-8,8v64a38.523,38.523,0,0,0,.752,7.579A55.433,55.433,0,0,1,56,320.01v-32a8,8,0,0,0-8-8ZM296,384a8.009,8.009,0,0,0,8,8,24,24,0,0,1,8,46.624V448a8,8,0,0,1-16,0v-8h-8a8,8,0,0,1,0-16h16a8,8,0,0,0,0-16,24,24,0,0,1-8-46.624V352a8,8,0,0,1,16,0v8h8a8,8,0,0,1,0,16H304A8.009,8.009,0,0,0,296,384ZM144,160h8v8a8,8,0,0,0,16,0v-8h16v8a8,8,0,0,0,16,0V157.293A27.97,27.97,0,0,0,207.569,112,27.97,27.97,0,0,0,200,66.707V56a8,8,0,0,0-16,0v8H168V56a8,8,0,0,0-16,0v8h-8a8,8,0,0,0-8,8v80A8,8,0,0,0,144,160Zm8-80h36a12,12,0,0,1,0,24H152Zm0,40h36a12,12,0,0,1,0,24H152Z" style="fill:url(#linear-gradient)"/></svg>